<svg width="26" height="30" viewBox="0 0 26 30" fill="none" xmlns="http://www.w3.org/2000/svg">
<path d="M9.47691 27.3925C10.1759 28.2698 11.2024 28.8376 12.3291 28.9702C13.4559 29.1028 14.59 28.7893 15.4806 28.099C15.7545 27.8948 16.0009 27.6574 16.214 27.3925M1.00116 17.502V17.1954C1.04613 16.2883 1.33684 15.4095 1.8433 14.6494C2.6863 13.7364 3.26338 12.6176 3.514 11.4104C3.514 10.4773 3.514 9.5309 3.5955 8.59784C4.01657 4.10578 8.45819 1 12.8455 1H12.9541C17.3414 1 21.7831 4.10578 22.2177 8.59784C22.2992 9.5309 22.2177 10.4773 22.2856 11.4104C22.5396 12.6204 23.1161 13.7427 23.9563 14.6628C24.4666 15.4161 24.7577 16.2917 24.7985 17.1954V17.4886C24.8288 18.7073 24.4091 19.8955 23.6167 20.8344C22.5697 21.9321 21.149 22.615 19.6234 22.7538C15.1498 23.2337 10.6362 23.2337 6.16267 22.7538C4.6388 22.609 3.22006 21.9271 2.16929 20.8344C1.3892 19.8948 0.975137 18.7136 1.00116 17.502Z" stroke="white" stroke-width="2" stroke-linecap="round" stroke-linejoin="round"/>
</svg>
