<svg width="28" height="28" viewBox="0 0 28 28" fill="none" xmlns="http://www.w3.org/2000/svg">
<path fill-rule="evenodd" clip-rule="evenodd" d="M4.58654 4.25737C5.56585 4.12488 6.76507 4.10166 8.20741 4.09893C8.29311 2.98365 8.7967 1.94185 9.61744 1.18188C10.4382 0.421911 11.5156 -0.000190143 12.6341 6.42552e-08H15.3659C16.484 0.000127477 17.5608 0.422193 18.3813 1.18184C19.2017 1.94149 19.7052 2.98277 19.7912 4.09756C21.2349 4.10166 22.4341 4.12488 23.4135 4.25737C24.6427 4.42127 25.678 4.77639 26.5003 5.59727C27.3225 6.41951 27.6749 7.45483 27.8416 8.6841C28 9.86829 28 11.3748 28 13.242V18.8556C28 20.7227 28 22.2293 27.8416 23.4135C27.6749 24.6427 27.3225 25.678 26.5003 26.5003C25.678 27.3225 24.6427 27.6749 23.4135 27.8416C22.2293 28 20.7227 28 18.8556 28H9.14439C7.27727 28 5.77073 28 4.58654 27.8416C3.35727 27.6749 2.32195 27.3225 1.49971 26.5003C0.677463 25.678 0.325073 24.6427 0.159805 23.4135C-2.03528e-08 22.2293 0 20.7227 0 18.8556V13.242C0 11.3748 -2.03528e-08 9.86829 0.159805 8.6841C0.323707 7.45483 0.678829 6.41951 1.49971 5.59727C2.32195 4.77502 3.35727 4.42263 4.58654 4.25737ZM17.7315 4.09756H10.2685C10.3506 3.5287 10.6349 3.00847 11.0694 2.63219C11.5039 2.25592 12.0594 2.0488 12.6341 2.04878H15.3659C15.9406 2.0488 16.4961 2.25592 16.9306 2.63219C17.3651 3.00847 17.6494 3.5287 17.7315 4.09756ZM4.85971 25.8105C3.85717 25.6753 3.32722 25.4281 2.94888 25.0511C2.57054 24.6728 2.32468 24.1428 2.18946 23.1389C2.05151 22.1077 2.04878 20.7405 2.04878 18.7805V14.1776C7.08605 16.2919 10.0281 17.4474 13.1259 17.5922C13.7077 17.6195 14.2923 17.6195 14.8741 17.5922C17.9719 17.4474 20.914 16.2919 25.9512 14.1776V18.7805C25.9512 20.7405 25.9485 22.1077 25.8105 23.1403C25.6753 24.1428 25.4281 24.6728 25.0511 25.0511C24.6728 25.4295 24.1428 25.6753 23.1389 25.8105C22.1077 25.9485 20.7405 25.9512 18.7805 25.9512H9.21951C7.25951 25.9512 5.89093 25.9485 4.85971 25.8105ZM25.9485 11.9553C20.3143 14.3251 17.6045 15.4137 14.7785 15.5448C14.2595 15.5694 13.7405 15.5694 13.2215 15.5448C10.3941 15.4137 7.68566 14.3251 2.05151 11.9553C2.05834 10.6946 2.08566 9.73171 2.18946 8.95727C2.32468 7.95473 2.5719 7.42478 2.94888 7.04644C3.32722 6.6681 3.85717 6.42224 4.86107 6.28702C5.89093 6.14907 7.25951 6.14634 9.21951 6.14634H18.7805C20.7405 6.14634 22.1077 6.14907 23.1403 6.28702C24.1428 6.42224 24.6728 6.66946 25.0511 7.04644C25.4295 7.42478 25.6753 7.95473 25.8105 8.95863C25.9143 9.73171 25.9417 10.6933 25.9485 11.9553Z" fill="white"/>
</svg>
