<svg width="23" height="23" viewBox="0 0 23 23" fill="none" xmlns="http://www.w3.org/2000/svg">
<path d="M23 11.5C23 11.5975 22.9793 11.6939 22.9392 11.7828C22.899 11.8717 22.8405 11.951 22.7673 12.0155L20.5855 13.9343L21.5155 16.6873C21.5466 16.7797 21.5577 16.8777 21.5481 16.9747C21.5384 17.0717 21.5082 17.1656 21.4595 17.2501C21.4107 17.3345 21.3444 17.4075 21.2652 17.4643C21.1859 17.5211 21.0955 17.5604 20.9999 17.5797L18.1512 18.1512L17.58 20.9998C17.5487 21.1554 17.4646 21.2953 17.3419 21.3959C17.2192 21.4965 17.0655 21.5515 16.9068 21.5515C16.8328 21.5515 16.7587 21.5395 16.6872 21.5151L13.9347 20.5855L12.0155 22.7669C11.8851 22.9152 11.6974 23 11.5 23C11.3026 23 11.1148 22.9152 10.9847 22.7669L9.06563 20.5855L6.3131 21.5151C6.24237 21.5392 6.16816 21.5515 6.09343 21.5515C5.97289 21.5515 5.85449 21.5197 5.75013 21.4594C5.6657 21.4106 5.59262 21.3444 5.53575 21.2651C5.47888 21.1859 5.43953 21.0954 5.4203 20.9998L4.84875 18.1512L2.00012 17.5797C1.90456 17.5605 1.81419 17.5211 1.735 17.4643C1.65582 17.4075 1.58964 17.3345 1.54086 17.2501C1.49201 17.1657 1.46175 17.0718 1.4521 16.9747C1.44245 16.8777 1.45364 16.7796 1.48491 16.6873L2.41445 13.9343L0.233014 12.0155C0.159761 11.9511 0.101087 11.8718 0.0609069 11.7829C0.0207264 11.694 -3.75607e-05 11.5976 5.10059e-08 11.5C5.10059e-08 11.3026 0.0846972 11.1148 0.233014 10.9843L2.41445 9.06558L1.48491 6.31268C1.45375 6.22028 1.44262 6.12231 1.45227 6.02528C1.46192 5.92825 1.49211 5.83439 1.54085 5.74993C1.58959 5.66548 1.65576 5.59237 1.73494 5.53548C1.81413 5.47858 1.90453 5.4392 2.00012 5.41995L4.84875 4.84873L5.4203 2.00004C5.45157 1.84453 5.5357 1.70464 5.6584 1.60411C5.7811 1.50358 5.93481 1.44862 6.09343 1.44855C6.16723 1.44855 6.24136 1.46054 6.3131 1.48458L9.06563 2.41444L10.9847 0.233077C11.1149 0.0848257 11.3026 0 11.5 0C11.6974 0 11.8851 0.0847613 12.0155 0.233077L13.9347 2.41444L16.6872 1.48458C16.7796 1.45344 16.8776 1.44233 16.9747 1.45198C17.0717 1.46162 17.1656 1.49181 17.2501 1.54053C17.3346 1.58926 17.4077 1.65546 17.4646 1.7347C17.5215 1.81394 17.5608 1.9044 17.58 2.00004L18.1512 4.84873L20.9999 5.41995C21.0956 5.43921 21.186 5.47859 21.2652 5.53547C21.3444 5.59234 21.4107 5.66542 21.4595 5.74984C21.5082 5.83432 21.5384 5.9282 21.5481 6.02524C21.5577 6.12228 21.5466 6.22026 21.5155 6.31268L20.5855 9.06558L22.7673 10.9843C22.8405 11.0489 22.899 11.1282 22.9392 11.2171C22.9793 11.306 23 11.4025 23 11.5Z" fill="#616161"/>
<path d="M18.7558 10.6634L15.7146 13.3501L16.4325 17.1431C16.4581 17.2779 16.4415 17.4165 16.3846 17.5432C16.3278 17.6699 16.2329 17.7796 16.1108 17.86C15.9887 17.9404 15.8442 17.9882 15.6936 17.998C15.5431 18.0078 15.3925 17.9792 15.2589 17.9155L11.5001 16.1247L7.74097 17.9155C7.60746 17.9793 7.45689 18.0079 7.30634 17.9981C7.15579 17.9883 7.0113 17.9404 6.88926 17.8599C6.76713 17.7796 6.67227 17.6698 6.61539 17.5432C6.55851 17.4165 6.54189 17.2779 6.56741 17.1431L7.28533 13.3501L4.24421 10.6634C4.13618 10.5679 4.05976 10.447 4.02359 10.3142C3.98742 10.1814 3.99294 10.0422 4.03953 9.91209C4.08621 9.78202 4.17209 9.66638 4.28747 9.5782C4.40286 9.49003 4.54314 9.43285 4.69249 9.41311L8.8952 8.85978L10.7746 5.40875C10.911 5.15858 11.1922 5 11.5001 5C11.808 5 12.0889 5.15858 12.2253 5.40875L14.1047 8.85978L18.3077 9.41311C18.457 9.43285 18.5973 9.49005 18.7126 9.57822C18.8279 9.6664 18.9137 9.78204 18.9603 9.91209C19.007 10.0421 19.0126 10.1814 18.9765 10.3142C18.9403 10.447 18.8639 10.568 18.7558 10.6634Z" fill="white"/>
</svg>
